<mxfile host="app.diagrams.net" agent="Mozilla/5.0 (Windows NT 10.0; Win64; x64) AppleWebKit/537.36 (KHTML, like Gecko) Chrome/132.0.0.0 Safari/537.36 OPR/117.0.0.0" version="26.2.14">
  <diagram name="Page-1" id="YxCon05R1FrhWUB9AdaB">
    <mxGraphModel dx="1385" dy="803" grid="1" gridSize="10" guides="1" tooltips="1" connect="1" arrows="1" fold="1" page="1" pageScale="1" pageWidth="827" pageHeight="1169" math="0" shadow="0">
      <root>
        <mxCell id="0" />
        <mxCell id="1" parent="0" />
        <mxCell id="DW9AiMzfegQtwvGdSgSK-2" value="Linky" style="whiteSpace=wrap;html=1;aspect=fixed;" vertex="1" parent="1">
          <mxGeometry x="124" y="100" width="80" height="80" as="geometry" />
        </mxCell>
        <mxCell id="DW9AiMzfegQtwvGdSgSK-3" value="Débimètre" style="whiteSpace=wrap;html=1;aspect=fixed;" vertex="1" parent="1">
          <mxGeometry x="124" y="230" width="80" height="80" as="geometry" />
        </mxCell>
        <mxCell id="DW9AiMzfegQtwvGdSgSK-4" value="Carte arduino mini pro" style="whiteSpace=wrap;html=1;aspect=fixed;" vertex="1" parent="1">
          <mxGeometry x="334" y="100" width="80" height="80" as="geometry" />
        </mxCell>
        <mxCell id="DW9AiMzfegQtwvGdSgSK-5" value="Carte arduino mini pro" style="whiteSpace=wrap;html=1;aspect=fixed;" vertex="1" parent="1">
          <mxGeometry x="334" y="230" width="80" height="80" as="geometry" />
        </mxCell>
        <mxCell id="DW9AiMzfegQtwvGdSgSK-6" value="" style="endArrow=classic;html=1;rounded=0;exitX=1;exitY=0.5;exitDx=0;exitDy=0;entryX=0;entryY=0.5;entryDx=0;entryDy=0;" edge="1" parent="1" source="DW9AiMzfegQtwvGdSgSK-2" target="DW9AiMzfegQtwvGdSgSK-4">
          <mxGeometry width="50" height="50" relative="1" as="geometry">
            <mxPoint x="390" y="270" as="sourcePoint" />
            <mxPoint x="440" y="220" as="targetPoint" />
          </mxGeometry>
        </mxCell>
        <mxCell id="DW9AiMzfegQtwvGdSgSK-7" value="" style="endArrow=classic;html=1;rounded=0;exitX=1;exitY=0.5;exitDx=0;exitDy=0;entryX=0;entryY=0.5;entryDx=0;entryDy=0;" edge="1" parent="1" source="DW9AiMzfegQtwvGdSgSK-3">
          <mxGeometry width="50" height="50" relative="1" as="geometry">
            <mxPoint x="240" y="269.5" as="sourcePoint" />
            <mxPoint x="334" y="269.5" as="targetPoint" />
          </mxGeometry>
        </mxCell>
        <mxCell id="DW9AiMzfegQtwvGdSgSK-8" value="Impulsion" style="edgeLabel;html=1;align=center;verticalAlign=middle;resizable=0;points=[];" vertex="1" connectable="0" parent="DW9AiMzfegQtwvGdSgSK-7">
          <mxGeometry x="-0.2067" y="13" relative="1" as="geometry">
            <mxPoint x="3" y="4" as="offset" />
          </mxGeometry>
        </mxCell>
        <mxCell id="DW9AiMzfegQtwvGdSgSK-9" value="Module LoRa" style="whiteSpace=wrap;html=1;aspect=fixed;" vertex="1" parent="1">
          <mxGeometry x="490" y="160" width="80" height="80" as="geometry" />
        </mxCell>
        <mxCell id="DW9AiMzfegQtwvGdSgSK-10" value="" style="strokeWidth=2;html=1;shape=mxgraph.flowchart.annotation_2;align=left;labelPosition=right;pointerEvents=1;rotation=-180;" vertex="1" parent="1">
          <mxGeometry x="414" y="140" width="34" height="120" as="geometry" />
        </mxCell>
        <mxCell id="DW9AiMzfegQtwvGdSgSK-11" value="" style="endArrow=classic;html=1;rounded=0;entryX=0;entryY=0.5;entryDx=0;entryDy=0;exitX=0;exitY=0.5;exitDx=0;exitDy=0;exitPerimeter=0;" edge="1" parent="1" source="DW9AiMzfegQtwvGdSgSK-10" target="DW9AiMzfegQtwvGdSgSK-9">
          <mxGeometry width="50" height="50" relative="1" as="geometry">
            <mxPoint x="450" y="200" as="sourcePoint" />
            <mxPoint x="510" y="200" as="targetPoint" />
          </mxGeometry>
        </mxCell>
        <mxCell id="DW9AiMzfegQtwvGdSgSK-12" value="API REST&lt;div&gt;(Flask)&lt;/div&gt;" style="whiteSpace=wrap;html=1;aspect=fixed;" vertex="1" parent="1">
          <mxGeometry x="490" y="429" width="80" height="80" as="geometry" />
        </mxCell>
        <mxCell id="DW9AiMzfegQtwvGdSgSK-13" value="BDD&lt;div&gt;(MYSQL)&lt;/div&gt;" style="whiteSpace=wrap;html=1;aspect=fixed;" vertex="1" parent="1">
          <mxGeometry x="700" y="428" width="80" height="80" as="geometry" />
        </mxCell>
        <mxCell id="DW9AiMzfegQtwvGdSgSK-14" value="Frontend&lt;div&gt;(Vue.js)&lt;/div&gt;" style="whiteSpace=wrap;html=1;aspect=fixed;" vertex="1" parent="1">
          <mxGeometry x="270" y="429" width="80" height="80" as="geometry" />
        </mxCell>
        <mxCell id="DW9AiMzfegQtwvGdSgSK-16" value="" style="endArrow=classic;startArrow=classic;html=1;rounded=0;entryX=0;entryY=0.5;entryDx=0;entryDy=0;exitX=1;exitY=0.5;exitDx=0;exitDy=0;" edge="1" parent="1" source="DW9AiMzfegQtwvGdSgSK-14" target="DW9AiMzfegQtwvGdSgSK-12">
          <mxGeometry width="50" height="50" relative="1" as="geometry">
            <mxPoint x="450" y="470" as="sourcePoint" />
            <mxPoint x="334" y="420" as="targetPoint" />
          </mxGeometry>
        </mxCell>
        <mxCell id="DW9AiMzfegQtwvGdSgSK-17" value="Requêtes HTTP" style="edgeLabel;html=1;align=center;verticalAlign=middle;resizable=0;points=[];" vertex="1" connectable="0" parent="DW9AiMzfegQtwvGdSgSK-16">
          <mxGeometry x="-0.0985" y="-1" relative="1" as="geometry">
            <mxPoint x="4" y="-12" as="offset" />
          </mxGeometry>
        </mxCell>
        <mxCell id="DW9AiMzfegQtwvGdSgSK-18" value="" style="endArrow=classic;startArrow=classic;html=1;rounded=0;entryX=0;entryY=0.5;entryDx=0;entryDy=0;exitX=1;exitY=0.5;exitDx=0;exitDy=0;" edge="1" parent="1" source="DW9AiMzfegQtwvGdSgSK-12" target="DW9AiMzfegQtwvGdSgSK-13">
          <mxGeometry width="50" height="50" relative="1" as="geometry">
            <mxPoint x="250" y="440" as="sourcePoint" />
            <mxPoint x="300" y="390" as="targetPoint" />
          </mxGeometry>
        </mxCell>
        <mxCell id="DW9AiMzfegQtwvGdSgSK-19" value="&lt;font style=&quot;font-size: 11px;&quot;&gt;Lecture/Ecriture&lt;/font&gt;" style="text;html=1;align=center;verticalAlign=middle;resizable=0;points=[];autosize=1;strokeColor=none;fillColor=none;" vertex="1" parent="1">
          <mxGeometry x="585" y="467" width="100" height="30" as="geometry" />
        </mxCell>
        <mxCell id="DW9AiMzfegQtwvGdSgSK-20" value="&lt;font style=&quot;font-size: 11px;&quot;&gt;TIC&lt;/font&gt;" style="text;html=1;align=center;verticalAlign=middle;resizable=0;points=[];autosize=1;strokeColor=none;fillColor=none;" vertex="1" parent="1">
          <mxGeometry x="246" y="117" width="40" height="30" as="geometry" />
        </mxCell>
        <mxCell id="DW9AiMzfegQtwvGdSgSK-21" value="&lt;font style=&quot;font-size: 11px;&quot;&gt;UART&lt;/font&gt;" style="text;whiteSpace=wrap;html=1;" vertex="1" parent="1">
          <mxGeometry x="449" y="175" width="30" height="20" as="geometry" />
        </mxCell>
        <mxCell id="DW9AiMzfegQtwvGdSgSK-23" value="&lt;font style=&quot;font-size: 11px;&quot;&gt;Protocole MySQL&lt;/font&gt;" style="text;whiteSpace=wrap;html=1;" vertex="1" parent="1">
          <mxGeometry x="590" y="447" width="90" height="20" as="geometry" />
        </mxCell>
        <mxCell id="DW9AiMzfegQtwvGdSgSK-24" value="&lt;font style=&quot;font-size: 11px;&quot;&gt;Lecture/Ecriture&lt;/font&gt;" style="text;html=1;align=center;verticalAlign=middle;resizable=0;points=[];autosize=1;strokeColor=none;fillColor=none;" vertex="1" parent="1">
          <mxGeometry x="369" y="466" width="100" height="30" as="geometry" />
        </mxCell>
        <mxCell id="DW9AiMzfegQtwvGdSgSK-25" value="&lt;font style=&quot;font-size: 11px;&quot;&gt;Données formatées&lt;/font&gt;" style="text;html=1;align=center;verticalAlign=middle;resizable=0;points=[];autosize=1;strokeColor=none;fillColor=none;" vertex="1" parent="1">
          <mxGeometry x="314" y="193" width="120" height="30" as="geometry" />
        </mxCell>
        <mxCell id="DW9AiMzfegQtwvGdSgSK-26" value="" style="endArrow=classic;html=1;rounded=0;entryX=0.5;entryY=1;entryDx=0;entryDy=0;" edge="1" parent="1" source="DW9AiMzfegQtwvGdSgSK-25" target="DW9AiMzfegQtwvGdSgSK-4">
          <mxGeometry width="50" height="50" relative="1" as="geometry">
            <mxPoint x="330" y="300" as="sourcePoint" />
            <mxPoint x="380" y="250" as="targetPoint" />
          </mxGeometry>
        </mxCell>
        <mxCell id="DW9AiMzfegQtwvGdSgSK-27" value="" style="endArrow=classic;html=1;rounded=0;entryX=0.5;entryY=0;entryDx=0;entryDy=0;" edge="1" parent="1" target="DW9AiMzfegQtwvGdSgSK-5">
          <mxGeometry width="50" height="50" relative="1" as="geometry">
            <mxPoint x="374" y="215" as="sourcePoint" />
            <mxPoint x="384" y="190" as="targetPoint" />
          </mxGeometry>
        </mxCell>
        <mxCell id="DW9AiMzfegQtwvGdSgSK-28" style="edgeStyle=orthogonalEdgeStyle;rounded=0;orthogonalLoop=1;jettySize=auto;html=1;exitX=0.5;exitY=0.5;exitDx=0;exitDy=0;exitPerimeter=0;entryX=0;entryY=0.5;entryDx=0;entryDy=0;" edge="1" parent="1" source="DW9AiMzfegQtwvGdSgSK-29" target="DW9AiMzfegQtwvGdSgSK-14">
          <mxGeometry relative="1" as="geometry" />
        </mxCell>
        <mxCell id="DW9AiMzfegQtwvGdSgSK-29" value="Gérant / Campeur" style="shape=umlActor;verticalLabelPosition=bottom;verticalAlign=top;html=1;" vertex="1" parent="1">
          <mxGeometry x="92" y="439" width="30" height="60" as="geometry" />
        </mxCell>
        <mxCell id="DW9AiMzfegQtwvGdSgSK-30" value="&lt;font style=&quot;font-size: 11px;&quot;&gt;&lt;font style=&quot;&quot;&gt;Consultatio&lt;/font&gt;n via navigateur&lt;/font&gt;" style="text;html=1;align=center;verticalAlign=middle;resizable=0;points=[];autosize=1;strokeColor=none;fillColor=none;" vertex="1" parent="1">
          <mxGeometry x="110" y="447" width="160" height="30" as="geometry" />
        </mxCell>
        <mxCell id="DW9AiMzfegQtwvGdSgSK-31" value="" style="rounded=1;whiteSpace=wrap;html=1;fillColor=none;" vertex="1" parent="1">
          <mxGeometry x="260" y="410" width="530" height="120" as="geometry" />
        </mxCell>
        <mxCell id="DW9AiMzfegQtwvGdSgSK-32" value="&lt;b&gt;Serveur de production&lt;/b&gt;" style="text;html=1;align=center;verticalAlign=middle;resizable=0;points=[];autosize=1;strokeColor=none;fillColor=none;" vertex="1" parent="1">
          <mxGeometry x="455" y="540" width="150" height="30" as="geometry" />
        </mxCell>
        <mxCell id="DW9AiMzfegQtwvGdSgSK-33" value="Passerelle LoRaWAN" style="whiteSpace=wrap;html=1;aspect=fixed;" vertex="1" parent="1">
          <mxGeometry x="490" y="270" width="80" height="80" as="geometry" />
        </mxCell>
      </root>
    </mxGraphModel>
  </diagram>
</mxfile>
